<svg width="16" height="17" viewBox="0 0 16 17" fill="none" xmlns="http://www.w3.org/2000/svg">
<g clip-path="url(#clip0_113_2)">
<path opacity="0.5" d="M2.99951 1.00336C2.99951 1.00336 1.99951 1.00336 1.99951 2.00336V11.0034C1.99951 11.0034 1.99951 12.0034 2.99951 12.0034H3.99951V3.00336H11.9995V2.00336C11.9995 1.00336 10.9995 1.00336 10.9995 1.00336H2.99951ZM5.99951 4.00336C5.99951 4.00336 4.99951 4.00336 4.99951 5.00336V15.0034C4.99951 16.0034 5.99951 16.0034 5.99951 16.0034H13.9995C13.9995 16.0034 14.9995 16.0034 14.9995 15.0004V5.00336C14.9995 4.00336 13.9995 4.00336 13.9995 4.00336H5.99951ZM6.99951 6.00336H12.9995V14.0034H6.99951V6.00336Z" fill="white"/>
</g>
<defs>
<clipPath id="clip0_113_2">
<rect width="16" height="16.0034" fill="white"/>
</clipPath>
</defs>
</svg>
